# xmcd
#
# Track frame offsets:
# 1303
# 28810
# 49718
# 68753
# 88751
# 109767
# 128122
# 147576
# 185117
# 211795
#
# Disc length: 2853 seconds
#
#
# Revision: 0
# Processed by: cddbd v1.5PL3 Copyright (c) Steve Scherf et al.
# Submitted via: FreeRIP 2.70 
#
DISCID=9a0b140a
DTITLE=Drella´s Dream Drops - Harbour Blues
DYEAR=1900
DGENRE=Blues
TTITLE0=Pleasure (Drella´s Mix)
TTITLE1=Tonight will be fine
TTITLE2=Zu viel
TTITLE3=Girl on the wall
TTITLE4=Calls through the night
TTITLE5=Mystic queen
TTITLE6=Final thoughts
TTITLE7=Britain Blues
TTITLE8=Pleasure ( All artist´s Mix)
TTITLE9=Have Fun!
EXTD=
EXTT0=
EXTT1=
EXTT2=
EXTT3=
EXTT4=
EXTT5=
EXTT6=
EXTT7=
EXTT8=
EXTT9=
PLAYORDER=
